Coordinates
version=1
nRows=21
nColumns=22
inDegrees=yes

Units are S.I. units (second, meters, Newtons, ...)
If the header above contains a line with 'inDegrees', this indicates whether rotational values are in degrees (yes) or radians (no).

endheader
time	pelvis_tilt	pelvis_list	pelvis_rotation	pelvis_tx	pelvis_ty	pelvis_tz	hip_flexion_r	hip_adduction_r	hip_rotation_r	knee_angle_r	ankle_angle_r	subtalar_angle_r	hip_flexion_l	hip_adduction_l	hip_rotation_l	knee_angle_l	ankle_angle_l	subtalar_angle_l	lumbar_extension	lumbar_bending	lumbar_rotation
      0.01000000	     -9.78670728	      2.37101505	    -37.12535984	     -0.95021179	      0.88395332	     -0.36341820	      9.68993028	      4.51676524	      3.24545735	     -5.18511864	      9.89854397	     -4.63488693	      7.41006340	     -3.39562923	     -5.21591240	     -7.60146544	     15.54351377	     -0.75989532	      5.06926295	      3.07586980	     10.18549867
      0.02000000	     -9.77966557	      2.37287083	    -37.12424756	     -0.95016524	      0.88397064	     -0.36347829	      9.66902399	      4.49723169	      3.25426408	     -5.15878296	      9.91758950	     -4.63052165	      7.43271167	     -3.38632039	     -5.19148894	     -7.65205510	     15.54416597	     -0.76114826	      5.06176397	      3.07541971	     10.20352421
      0.03000000	     -9.77692701	      2.37486531	    -37.11829488	     -0.95010410	      0.88398358	     -0.36356307	      9.63772917	      4.47576373	      3.27748018	     -5.10527852	      9.92378165	     -4.61573136	      7.47147039	     -3.37834816	     -5.16389668	     -7.72567077	     15.56083577	     -0.76861183	      5.05823512	      3.07951493	     10.21509851
      0.04000000	     -9.79071604	      2.37680137	    -37.11005525	     -0.95001712	      0.88397853	     -0.36366257	      9.60217955	      4.46055380	      3.31781339	     -5.01730034	      9.88655432	     -4.56812303	      7.52964152	     -3.37928265	     -5.15183021	     -7.80970591	     15.61125741	     -0.79702140	      5.07296867	      3.09983899	     10.20022685
      0.05000000	     -9.79432877	      2.37533110	    -37.11619791	     -0.94994784	      0.88399234	     -0.36376658	      9.57685751	      4.44549524	      3.33395254	     -4.96813371	      9.88610034	     -4.54903789	      7.56704096	     -3.37696342	     -5.11378262	     -7.87770174	     15.61372805	     -0.80729292	      5.06948512	      3.11476834	     10.24379496
      0.06000000	     -9.81592840	      2.38323023	    -37.11681433	     -0.94985435	      0.88397484	     -0.36389267	      9.54105485	      4.42723742	      3.40112785	     -4.85718664	      9.82938907	     -4.48136123	      7.63675525	     -3.37693908	     -5.10544600	     -7.96589811	     15.66686664	     -0.84993282	      5.09228343	      3.13982607	     10.23886786
      0.07000000	     -9.82207407	      2.38399698	    -37.12791384	     -0.94977135	      0.88398368	     -0.36403169	      9.52005161	      4.40966309	      3.41667418	     -4.80752928	      9.82394810	     -4.45915282	      7.67245953	     -3.37163717	     -5.07295295	     -8.02399980	     15.66750956	     -0.86296844	      5.09006020	      3.15872837	     10.29123582
      0.08000000	     -9.84302226	      2.39792528	    -37.14405357	     -0.94968628	      0.88396255	     -0.36418492	      9.49239099	      4.38724179	      3.49220889	     -4.70049470	      9.76109813	     -4.38954911	      7.73434595	     -3.36438239	     -5.07740776	     -8.09216125	     15.70660150	     -0.90851665	      5.11225980	      3.18116194	     10.30675821
      0.09000000	     -9.85050572	      2.40194511	    -37.16039181	     -0.94960077	      0.88396364	     -0.36436347	      9.47769795	      4.36815314	      3.50022603	     -4.65186497	      9.75286900	     -4.36834236	      7.76384168	     -3.35443310	     -5.05906586	     -8.13076383	     15.70518526	     -0.92165079	      5.10977571	      3.20120592	     10.36321630
      0.10000000	     -9.86672812	      2.42102287	    -37.18696973	     -0.94952327	      0.88394355	     -0.36455716	      9.45905167	      4.34060057	      3.57314632	     -4.55780411	      9.68961606	     -4.30434943	      7.80860827	     -3.33646021	     -5.08498725	     -8.16596323	     15.72501891	     -0.96341327	      5.12344604	      3.21854782	     10.39947827
      0.11000000	     -9.87458804	      2.42774538	    -37.21263272	     -0.94942994	      0.88393909	     -0.36475864	      9.45127343	      4.32259316	      3.56746725	     -4.51578306	      9.68233651	     -4.28723285	      7.82523675	     -3.32183155	     -5.08376536	     -8.17886521	     15.72076859	     -0.97414664	      5.12345987	      3.23946206	     10.45210975
      0.12000000	     -9.88361050	      2.45179150	    -37.25989065	     -0.94937342	      0.88392504	     -0.36496160	      9.44405360	      4.29283582	      3.63576883	     -4.44264048	      9.62140881	     -4.22311252	      7.84294932	     -3.29461844	     -5.13534495	     -8.17223512	     15.71415712	     -1.01372198	      5.12975272	      3.24826360	     10.51166662
      0.13000000	     -9.89322430	      2.46003325	    -37.28433844	     -0.94927540	      0.88391257	     -0.36521116	      9.44653341	      4.27494617	      3.62025039	     -4.41041156	      9.61823583	     -4.21061415	      7.84869113	     -3.27544008	     -5.15097591	     -8.15605038	     15.70928080	     -1.02118243	      5.12803295	      3.27042869	     10.55555795
      0.14000000	     -9.89603732	      2.48772546	    -37.34533390	     -0.94924518	      0.88390591	     -0.36542976	      9.46219315	      4.24434341	      3.67770553	     -4.38127233	      9.57528792	     -4.15881895	      7.83923963	     -3.24047851	     -5.22166769	     -8.10213467	     15.67236629	     -1.04780837	      5.12544219	      3.26962306	     10.63276276
      0.15000000	     -9.90868286	      2.50078912	    -37.37695343	     -0.94916480	      0.88388472	     -0.36568844	      9.47716096	      4.22833195	      3.65823714	     -4.35660527	      9.57257442	     -4.14658480	      7.83591906	     -3.21940496	     -5.26058141	     -8.05696302	     15.66690817	     -1.05370117	      5.12663373	      3.28614361	     10.67077349
      0.16000000	     -9.91002929	      2.52963231	    -37.44809916	     -0.94916110	      0.88387734	     -0.36592860	      9.51904196	      4.20056506	      3.71246647	     -4.37359188	      9.55476991	     -4.10749946	      7.81781051	     -3.18258100	     -5.34047265	     -7.98693576	     15.61324319	     -1.06508902	      5.11854213	      3.28097985	     10.75283554
      0.17000000	     -9.91848384	      2.55240344	    -37.50004276	     -0.94912364	      0.88385851	     -0.36619348	      9.56214310	      4.17909576	      3.72856165	     -4.39047151	      9.54868813	     -4.08176933	      7.80459948	     -3.15262739	     -5.41226242	     -7.91844262	     15.58302875	     -1.06828522	      5.11602654	      3.28353225	     10.80801143
      0.18000000	     -9.93359453	      2.56583789	    -37.52990251	     -0.94904900	      0.88383331	     -0.36648427	      9.59921911	      4.16575155	      3.72015404	     -4.39887789	      9.53931702	     -4.07496573	      7.79538973	     -3.13142241	     -5.46765828	     -7.85346282	     15.57419387	     -1.06793072	      5.11675917	      3.29739577	     10.81837094
      0.19000000	     -9.94350031	      2.59338797	    -37.58831644	     -0.94904977	      0.88380761	     -0.36676629	      9.67103986	      4.14447532	      3.75778793	     -4.45752999	      9.54482983	     -4.05712522	      7.78982884	     -3.09994608	     -5.53999265	     -7.78746221	     15.51522524	     -1.05935073	      5.11260720	      3.29039094	     10.89408151
      0.20000000	     -9.95825516	      2.61033231	    -37.61765935	     -0.94899576	      0.88377404	     -0.36707719	      9.73006551	      4.12884522	      3.76328297	     -4.50071672	      9.54420051	     -4.04937604	      7.78765170	     -3.07564432	     -5.59702152	     -7.72850954	     15.49334376	     -1.04943870	      5.11094139	      3.29494427	     10.91426008
      0.21000000	     -9.97465216	      2.62251930	    -37.63502119	     -0.94893625	      0.88373628	     -0.36740857	      9.79081206	      4.11614548	      3.76674778	     -4.55067739	      9.54735958	     -4.04819524	      7.78959696	     -3.05489017	     -5.63745219	     -7.67585258	     15.46953257	     -1.03672233	      5.10739990	      3.30168561	     10.92387897
